<svg width="200" height="40" viewBox="0 0 200 40" fill="none" xmlns="http://www.w3.org/2000/svg">
<g id="logo">
<path id="wordmark" fill-rule="evenodd" clip-rule="evenodd" d="M110.956 22.2903L108.272 24.6813C109.98 26.5329 112.391 27.721 116.362 27.721C121.183 27.721 123.407 26.0329 123.407 22.6022C123.407 18.7952 119.871 17.9438 116.629 17.5477C113.634 17.1962 112.782 16.9092 112.782 15.9092C112.782 14.909 113.634 14.4933 115.797 14.4933C118.273 14.4933 119.728 15.5131 120.436 16.4289L122.936 14.0031C121.292 12.2606 119.173 11.3002 115.634 11.3002C111.56 11.3002 108.857 12.8794 108.857 16.2507C108.857 20.1814 112.619 20.8448 115.718 21.2854C118.57 21.6764 119.381 21.8645 119.381 22.9883C119.381 24.0181 118.505 24.4735 116.282 24.4735C113.827 24.4735 112.06 23.5824 110.956 22.2903ZM59.5942 11.6319H50.4457V27.3548H59.6141C64.1091 27.3548 65.4408 25.4835 65.4408 22.8399C65.4408 20.7013 64.525 19.8052 63.0695 19.2458C64.525 18.5775 65.1041 17.6815 65.1041 15.8942C65.1041 13.8547 63.817 11.6319 59.5942 11.6319ZM61.218 16.3547C61.218 17.4538 60.718 17.7062 59.2824 17.7062H54.52V14.9784H59.3022C60.8021 14.9784 61.218 15.3943 61.218 16.3547ZM59.4704 24.0081H54.52L54.5398 20.825H59.3665C61.015 20.825 61.5101 21.325 61.5101 22.3844C61.5101 23.4439 61.0497 24.0081 59.4704 24.0081ZM85.1438 11.6319H71.5645V27.3548H85.5398V24.1913H75.6388V20.825H82.7526V17.726H75.6388V14.7309H85.1438V11.6319ZM91.52 11.6319H95.5993V24.1122H103.916V27.3548H91.5398L91.52 11.6319ZM127.921 14.8646V11.6319H141.961V14.8745H137.114V27.3548H133.035V14.8646H127.921ZM144.54 27.3447H148.5L149.54 24.4141H156.03L157.07 27.3447H161.333L155.342 11.622H150.48L144.54 27.3447ZM150.634 21.3745L152.763 15.3447L154.916 21.3745H150.634ZM166.773 11.6319H180.337V14.7309H170.832V18.1419H178.357V21.2409H170.847V27.3548H166.773V11.6319ZM199.976 11.6319H186.396V27.3548H190.47V21.2409H198V18.1419H190.47V14.7309H199.976V11.6319Z" fill="black"/>
<path id="brandmark" fill-rule="evenodd" clip-rule="evenodd" d="M38.6931 18.9289C38.17 20.4046 37.5482 21.8436 36.8318 23.2358C36.1189 24.6072 35.703 24.7408 32.599 24.9091C32.9834 25.0568 33.5674 25.2747 34.201 25.511C35.2243 25.8927 36.3766 26.3225 37.0248 26.5824C36.2232 27.6585 35.3179 28.6534 34.3219 29.5527C33.7032 30.0498 32.9133 30.2827 32.1238 30.2012H29.614L32.3713 32.5873C32.374 32.5927 32.3754 32.5987 32.3754 32.6046C32.3754 32.6107 32.374 32.6166 32.3713 32.622C31.1734 33.3596 30.1783 33.9338 29.0396 34.5428C27.7872 35.1864 27.2476 35.0874 24.9259 33.7705C24.918 33.7645 24.9084 33.7612 24.8986 33.7612C24.8887 33.7612 24.8792 33.7645 24.8714 33.7705C24.8653 33.7784 24.8621 33.7879 24.8621 33.7977C24.8621 33.8076 24.8653 33.8172 24.8714 33.8249C25.1032 34.3331 25.5716 35.2343 26.0492 36.1531C26.1021 36.2549 26.1552 36.3569 26.208 36.4586C26.7872 37.5725 27.3317 38.622 27.406 38.8547C27.4094 38.8608 27.4113 38.8676 27.4113 38.8745C27.4113 38.8814 27.4094 38.8882 27.406 38.8943C27.3932 38.8989 27.3792 38.8989 27.3664 38.8943H22.3762C22.3681 38.8937 22.3602 38.8912 22.3534 38.8869C22.3465 38.8826 22.3408 38.8766 22.3367 38.8695L20.8516 36.4685H20.802C20.7924 36.4697 20.7835 36.4745 20.7772 36.4818C20.7707 36.4891 20.7673 36.4985 20.7674 36.5082L20.5446 38.934H18.0248L17.797 36.5082C17.7971 36.4985 17.7937 36.4891 17.7872 36.4818C17.7809 36.4745 17.7721 36.4697 17.7624 36.4685C17.7546 36.4653 17.7461 36.4636 17.7377 36.4636C17.7292 36.4636 17.7207 36.4653 17.713 36.4685L16.2278 38.8695C16.225 38.8765 16.2202 38.8826 16.2141 38.887C16.2079 38.8913 16.2006 38.894 16.1931 38.8943H11.198C11.1926 38.8969 11.1867 38.8983 11.1807 38.8983C11.1747 38.8983 11.1688 38.8969 11.1634 38.8943C11.1599 38.8882 11.1581 38.8814 11.1581 38.8745C11.1581 38.8676 11.1599 38.8608 11.1634 38.8547C11.2324 38.6386 11.7112 37.7181 12.243 36.6958C12.2838 36.6172 12.325 36.5381 12.3663 36.4586C12.4244 36.3469 12.4827 36.2348 12.5408 36.123C13.0131 35.2146 13.4744 34.3275 13.7079 33.8249C13.7127 33.8167 13.7152 33.8073 13.7152 33.7977C13.7152 33.7882 13.7127 33.7789 13.7079 33.7705C13.7002 33.7645 13.6906 33.7612 13.6807 33.7612C13.6709 33.7612 13.6613 33.7645 13.6535 33.7705C11.3317 35.0874 10.7971 35.1864 9.54457 34.5428C8.40102 33.9338 7.40596 33.3596 6.21288 32.622V32.5873L8.97527 30.2556H6.46536C5.6691 30.3205 4.87711 30.0876 4.24258 29.6021C3.25276 28.6889 2.3587 27.6771 1.57426 26.5824C2.0627 26.3949 2.84232 26.1045 3.63979 25.8075C4.54776 25.4694 5.47887 25.1226 6.02972 24.9091C2.94555 24.7755 2.52475 24.6418 1.85149 23.2358L1.87624 23.2111C1.1509 21.8211 0.523946 20.382 0 18.9041C0.393411 18.9283 0.822043 18.957 1.26288 18.9865C2.62493 19.0776 4.10351 19.1765 5.01981 19.1765C4.62874 18.8955 4.25655 18.6508 3.91267 18.4247C2.74167 17.6548 1.89902 17.1007 1.75743 16.0675C1.4307 13.2655 1.34159 9.80016 1.34159 9.80016L7.51982 13.9834C7.51982 13.9834 6.65844 12.8349 6.00001 11.8447C4.72774 9.90412 4.33169 8.52293 7.51982 3.27044C7.57922 3.40411 10.6089 8.48828 10.6089 8.48828C9.74755 6.04768 9.53468 4.27045 9.86141 3.11698C10.1881 1.96351 12.9753 0.473413 14.3713 0.0922241C14.406 0.310046 15.7079 13.4586 15.7079 13.4586C13.9207 14.2786 12.4677 15.685 11.5898 17.4444C10.712 19.2039 10.4621 21.2107 10.8818 23.1317C11.3014 25.0528 12.3653 26.7725 13.897 28.0056C15.4285 29.2388 17.3358 29.9112 19.3021 29.9112C21.2683 29.9112 23.1755 29.2388 24.7071 28.0056C26.2388 26.7725 27.3027 25.0528 27.7223 23.1317C28.142 21.2107 27.8921 19.2039 27.0142 17.4444C26.1364 15.685 24.6833 14.2786 22.8961 13.4586C22.8961 13.4586 24.1981 0.324897 24.1981 0.0922241C25.6535 0.473413 28.3862 1.90411 28.7427 3.08727C29.0991 4.27045 28.8417 6.00809 28.01 8.44868C28.104 8.24571 31.0198 3.43382 31.208 3.2952C34.3219 8.52294 33.9654 9.92889 32.6931 11.8695C32.0447 12.8794 31.208 14.0081 31.208 14.0081L37.3565 9.82492C37.3565 9.82492 37.2624 13.2755 36.9159 16.0923C36.7973 17.1254 35.9571 17.6794 34.7861 18.4515C34.4421 18.6783 34.0695 18.9239 33.6783 19.2061C34.5301 19.2168 35.9012 19.1206 37.2093 19.0288C37.7256 18.9925 38.2322 18.957 38.6931 18.9289ZM15.9605 27.2358C15.9605 27.2358 16.6634 28.0131 19.307 28.0131C21.9506 28.0131 22.6535 27.2358 22.6535 27.2358V23.2061H25.9307C26.3318 21.3512 26.127 19.4164 25.3466 17.6863H13.2574C12.477 19.4164 12.2722 21.3512 12.6733 23.2061H15.9605V27.2358Z" fill="black"/>
</g>
</svg>
